<?xml version="1.0" encoding="UTF-8" standalone="no"?>
<svg
   xmlns="http://www.w3.org/2000/svg"
   width="97pt"
   height="83pt"
   viewBox="0 0 97 83"
   version="1.1">
  <circle
     style="fill:#a9a9a9;fill-opacity:1;stroke:none;stroke-width:2.05658;stroke-linecap:round"
     id="path2730"
     cx="47.87471"
     cy="61.219952"
     r="9.375" />
  <path
     style="fill:none;stroke:#a9a9a9;stroke-width:6;stroke-linecap:round;stroke-linejoin:miter;stroke-miterlimit:4;stroke-dasharray:none;stroke-opacity:1"
     d="M 47.70291,51.786188 V 3"/>
  <path
     style="fill:none;stroke:#a9a9a9;stroke-width:5.73395;stroke-linecap:round;stroke-linejoin:miter;stroke-miterlimit:4;stroke-dasharray:none;stroke-opacity:1"
     d="M 50.816698,17.211928 H 65.635453"/>
  <path
     style="fill:none;stroke:#a9a9a9;stroke-width:5.73399;stroke-linecap:round;stroke-linejoin:miter;stroke-miterlimit:4;stroke-dasharray:none;stroke-opacity:1"
     d="M 50.816739,26.211948 H 65.635707"/>
  <path
     style="fill:none;stroke:#a9a9a9;stroke-width:5.73395;stroke-linecap:round;stroke-linejoin:miter;stroke-miterlimit:4;stroke-dasharray:none;stroke-opacity:1"
     d="M 50.816698,8.2119285 H 65.635453"/>
  <path
     style="fill:none;stroke:#a9a9a9;stroke-width:5.73399;stroke-linecap:round;stroke-linejoin:miter;stroke-miterlimit:4;stroke-dasharray:none;stroke-opacity:1"
     d="M 50.816718,35.211948 H 65.635686"/>
  <path
     style="fill:none;stroke:#a9a9a9;stroke-width:6;stroke-linecap:butt;stroke-linejoin:miter;stroke-miterlimit:4;stroke-dasharray:none;stroke-opacity:1"
     d="m -2.2811535,75.525898 c 0,0 3.5926364,4.479793 9.4741035,4.464806 8.711017,-0.0222 12.741036,-8.820717 20.146082,-8.711819 7.077588,0.104082 11.867044,8.447769 19.928287,8.494024 8.709673,0.04998 12.30499,-8.996878 20.363878,-8.929616 7.404629,0.0618 12.304938,9.080045 19.492693,9.147408 5.995353,0.05619 10.998673,-4.791496 12.087653,-5.33599"/>
  <path
     style="fill:none;stroke:#a9a9a9;stroke-width:6;stroke-linecap:butt;stroke-linejoin:miter;stroke-miterlimit:4;stroke-dasharray:none;stroke-opacity:1"
     d="m -2.607846,60.132521 c 3.39068363,2.75584 5.5075153,6.650654 12.088356,6.622538 6.177271,-0.02639 13.341738,-8.993845 20.036477,-8.909391"/>
  <path
     style="fill:none;stroke:#a9a9a9;stroke-width:5.99998;stroke-linecap:butt;stroke-linejoin:miter;stroke-miterlimit:4;stroke-dasharray:none;stroke-opacity:1"
     d="m 98.64308,60.132516 c -3.390653,2.755845 -5.507464,6.65067 -12.088238,6.622554 -6.17721,-0.02639 -13.341604,-8.993867 -20.036277,-8.909413"/>
</svg>
