<?xml version="1.0" encoding="UTF-8" standalone="no"?>
<svg xmlns="http://www.w3.org/2000/svg" version="1.1" width="47" height="31" viewBox="0 0 47 31">
<defs>
<marker style="overflow:visible" id="Arrow" orient="auto">
<path transform="scale(0.2)" stroke="none" fill="#ffbb00"
   d="M 5.77,0 -2.88,5 V -5 Z" />
</marker>
</defs>
<g stroke="#48cc8e" stroke-width="2.5">
<path d="m 19.944657,3.8277624 v 2.236219" />
<path d="M 28.02325,5.9632509 26.903746,7.9022887" />
<path d="M 33.946208,11.845917 32.03739,12.947974" />
<path d="M 36.162281,19.944657 H 33.905916" />
<path d="M 34.006647,28.063542 32.052499,26.935314" />
<path d="M 5.9531778,28.02325 7.8986017,26.900059" />
<path d="M 3.8277624,19.944657 H 6.0740545" />
<path d="m 6.0035431,11.886209 1.9509544,1.126385" />
<path d="m 11.886209,6.0035431 1.128228,1.9541474" />
</g>
<g>
<path stroke="#48cc8e" stroke-width="4" fill="none"
   d="M 5.2,30.2 A 18,18 0 0 1 8,6.5 18,18 0 0 1 31.86,6.46 18,18 0 0 1 34.9,30.1" />
<circle stroke="none" fill="#4886cc" cx="20" cy="20" r="2.5" />
<path stroke="none" fill="#4886cc" d="m 31.45,13.35 -12.27,4.19 2.14,4.62 z" />
<path stroke="#ffbb00" stroke-width="4" marker-end="url(#Arrow)"
   d="m 44.663943,5.6610591 -5.308521,3.064876" />
</g>
</svg>
