<?xml version="1.0" encoding="UTF-8" standalone="no"?>
<svg xmlns="http://www.w3.org/2000/svg" viewBox="0 0 269.97 269.97" version="1.1">
<g transform="translate(-360.01 -534.88)">
<path fill="#e80808" transform="matrix(.99127 -.13184 .13184 .99127 126.03 363.28)"
   d="m443.36 420.7-82.757 63.502-103.42-13.616-63.502-82.757 13.616-103.42 82.757-63.502 103.42 13.616 63.502 82.757z"/>
<path fill="#ffffff" transform="matrix(.99127 -.13184 .13184 .99127 126.02 363.27)"
   d="m291.31 225.59-79.812 61.25-13.125 99.719 61.25 79.844 99.719 13.094 79.844-61.25 13.094-99.719-61.25-79.812-99.719-13.125z"/>
<path fill="#e80808" transform="matrix(.99127 -.13184 .13184 .99127 126.02 363.27)"
   d="m292.44 229.84-77.125 59.188-12.688 96.406 59.188 77.156 96.406 12.656 77.156-59.188 12.656-96.406-59.188-77.125-96.406-12.688z"/>
</g>
<text x="37.1" y="141.7" font-size="86.6855px" font-family="sans-serif" font-weight="bold" fill="#ffffff" transform="scale(0.87,1.22)">STOP</text>
</svg>
