<?xml version="1.0" encoding="UTF-8" standalone="no"?>
<svg xmlns="http://www.w3.org/2000/svg" version="1.1" viewBox="0 0 1160 1180">
<g>
<path fill="white"
  d="M0 590 l0 590 580 0 580 0 0 590 0 590 -580 0 -580 0 0 -590z m555
  500 c59 -68 57 -152 -5 -227 -43 -50 -52 -123 -17 -123 34 0 87 48 87 78 0
  262 426 298 502 43 64 -213 -118 -369 -282 -241 -68 53 -100 50 -100 -10 0
  -38 13 -52 55 -61 332 -69 285 -529 -55 -529 -155 0 -235 159 -140 280 56 71
  52 120 -10 120 -41 0 -50 -10 -50 -55 0 -239 -420 -305 -499 -79 -81 232 83
  408 254 274 71 -56 125 -52 125 8 0 41 -12 51 -84 63 -327 55 -226 558 104
  519 43 -5 87 -29 115 -60z"/>
<circle cx="580" cy="591" r="40" stroke="none" fill="black" />
</g>
</svg>
