<?xml version="1.0" standalone="no"?>
<svg version="1.0" xmlns="http://www.w3.org/2000/svg" width="80pt" height="82pt" viewBox="0 0 80 82">
<g transform="translate(0.000000,82.000000) scale(0.050000,-0.050000)" fill="#a9a9a9" stroke="none">
<path d="M229 1545 l-79 -74 55 -7 c30 -4 55 -18 55 -32 0 -14 27 -66 60 -114
38 -56 59 -113 59 -158 0 -45 -21 -102 -59 -158 -81 -118 -80 -221 0 -340 77
-113 77 -191 0 -304 -83 -123 -78 -190 12 -165 142 39 211 348 111 499 -79
119 -79 170 0 292 43 67 62 123 62 176 0 53 -19 107 -62 172 -76 115 -77 128
-13 128 66 0 64 7 -25 89 -92 86 -81 86 -176 -4z"/>
<path d="M684 1554 c-77 -79 -79 -94 -14 -94 31 0 50 -11 50 -30 0 -17 27 -81
60 -143 67 -126 65 -170 -17 -293 -69 -106 -68 -226 6 -332 68 -99 73 -203 11
-286 -68 -93 -87 -176 -39 -176 22 0 45 -1 53 -3 8 -1 24 15 35 35 12 21 43
70 71 108 74 103 70 244 -9 347 -70 91 -77 183 -20 263 115 163 118 236 18
391 l-70 109 50 6 c67 9 64 23 -15 100 -82 80 -91 79 -170 -2z"/>
<path d="M1124 1554 c-77 -79 -79 -94 -16 -94 35 0 51 -14 61 -52 7 -29 31
-76 52 -106 68 -91 70 -180 8 -272 -82 -119 -89 -247 -21 -351 84 -126 86
-177 10 -313 -69 -126 -69 -186 2 -186 24 0 48 19 59 46 9 26 41 81 69 123 74
109 71 226 -8 341 -76 110 -76 176 0 290 83 124 83 243 1 351 -70 93 -76 129
-21 129 56 0 50 22 -26 96 -82 80 -91 79 -170 -2z"/>
<path d="M0 70 l0 -70 800 0 800 0 0 70 0 70 -800 0 -800 0 0 -70z"/>
</g>
</svg>
