<?xml version="1.0" encoding="UTF-8" standalone="no"?>
<svg xmlns="http://www.w3.org/2000/svg" version="1.1" width="50" height="40" viewBox="0 0 50 40">
<g>
<path stroke="#48cc8e" stroke-width="4" stroke-linecap="round" fill="none"
   d="M 10.8,38 A 23,23 0 0 1 10.6,2" />
<circle cx="25" cy="20" r="16" stroke="#48cc8e" stroke-width="4" fill="none" />
<path stroke="#48cc8e" stroke-width="4" stroke-linecap="round" fill="none"
   d="M 39.2,38 A 23,23 0 0 0 39.4,2" />

<path stroke="none" fill="#ffbb00"
   d="m 21.872235,27.138658 -3.447352,-3.397709 1.60347,-0.05802 c 1.841288,-0.06673 2.334512,-0.178232 2.889773,-0.653517 0.653557,-0.55942 1.546102,-2.696982 1.546102,-3.702779 0,-0.510842 -0.233917,-1.068557 -0.539424,-1.286093 -0.372085,-0.264944 -1.208571,-0.450758 -2.029226,-0.450758 -0.871702,0 -1.617908,-0.197467 -1.761729,-0.466197 -0.165253,-0.30878 -0.0314,-0.87653 0.410154,-1.739727 0.391577,-0.765503 4.377308,-6.8209771 4.445018,-6.7532624 0.01744,0.01743 0.148128,1.0216332 0.290403,2.2315334 0.335121,2.849841 0.439651,3.318914 0.833992,3.742444 0.433002,0.465064 0.848414,0.556471 3.515595,0.773621 0.884559,0.07208 1.622013,0.144667 1.638788,0.161437 0.01677,0.01681 -0.235849,0.45453 -0.561384,0.972792 -1.710371,2.722965 -3.050371,4.947651 -3.323847,5.518301 -0.333183,0.695236 -0.395655,1.226047 -0.166664,1.416094 0.08501,0.07059 0.574411,0.145825 1.23802,0.190408 1.408348,0.09462 1.659755,0.140172 1.759704,0.318777 0.165476,0.295684 -0.160995,0.93197 -1.053023,2.052306 -0.384234,0.48258 -3.499057,4.159003 -3.787162,4.469987 -0.02962,0.032 -1.605163,-1.470835 -3.501208,-3.33958 z" />
</g>
</svg>
