<?xml version="1.0" encoding="UTF-8" standalone="no"?>
<svg xmlns="http://www.w3.org/2000/svg" version="1.1" viewBox="0 0 262 113">
<defs>
<marker style="overflow:visible;" id="ArrowEnd" orient="auto">
<path stroke="none" stroke-width="1pt" fill="red" transform="scale(0.4) rotate(180) translate(-5,0)"
   d="M 8.718587,4.0337352 L -2.2072895,0.016013256 L 8.7185884,-4.0017078 C 6.9730900,-1.6296469 6.9831476,1.6157441 8.7185878,4.0337352 z "/>
</marker>
</defs>
<g stroke="none">
<path fill="white"
  d="m 42.732828,90.241688 c 0,0 -36.984883,1.807632 -37.757486,-22.529359 -0.772602,-24.336987 6.567124,-30.90411 24.336987,-30.90411 15.471358,0 43.265753,-1.931507 43.265753,-1.931507 L 116.3,0 h 75.6 l 32.9274,38.649315 c 0,0 10.42724,0.510155 24.33698,0.772603 20.47397,0.386301 27.04301,47.962852 -1.5452,52.536982 l -9.65754,1.54521 c 0,0 -4.37396,18.95486 -27.279,18.94924 C 190.97365,112.44852 185,93 185,93 l -87.652055,0.89041 c 0,0 -6.127195,18.28662 -27.397246,18.26053 -24.482944,-0.03 -27.217871,-21.909252 -27.217871,-21.909252 z" />
<path stroke="red" stroke-width="11" fill="none" marker-end="url(#ArrowEnd)"
   d="m 185,25 h -65 c 0,0 -16.5,-0.5 -16.8,15 -0.2,15.5 12.7,16.6 12.7,16.6 h 69" />
</g>
</svg>
